<?xml version="1.0" encoding="UTF-8" standalone="no"?>
<!-- Generator: Adobe Illustrator 20.0.0, SVG Export Plug-In . SVG Version: 6.00 Build 0)  -->

<svg
   xmlns:dc="http://purl.org/dc/elements/1.1/"
   xmlns:cc="http://creativecommons.org/ns#"
   xmlns:rdf="http://www.w3.org/1999/02/22-rdf-syntax-ns#"
   xmlns:svg="http://www.w3.org/2000/svg"
   xmlns="http://www.w3.org/2000/svg"
   xmlns:sodipodi="http://sodipodi.sourceforge.net/DTD/sodipodi-0.dtd"
   xmlns:inkscape="http://www.inkscape.org/namespaces/inkscape"
   version="1.1"
   id="Layer_1"
   x="0px"
   y="0px"
   viewBox="0 0 17 55"
   xml:space="preserve"
   sodipodi:docname="marker-editor.svg"
   inkscape:version="0.92.3 (2405546, 2018-03-11)"
   width="17"
   height="55"><metadata
   id="metadata22"><rdf:RDF><cc:Work
       rdf:about=""><dc:format>image/svg+xml</dc:format><dc:type
         rdf:resource="http://purl.org/dc/dcmitype/StillImage" /><dc:title></dc:title></cc:Work></rdf:RDF></metadata><defs
   id="defs20" /><sodipodi:namedview
   pagecolor="#ffffff"
   bordercolor="#666666"
   borderopacity="1"
   objecttolerance="10"
   gridtolerance="10"
   guidetolerance="10"
   inkscape:pageopacity="0"
   inkscape:pageshadow="2"
   inkscape:window-width="1366"
   inkscape:window-height="705"
   id="namedview18"
   showgrid="false"
   inkscape:zoom="11.125147"
   inkscape:cx="-1.3217317"
   inkscape:cy="27.332789"
   inkscape:window-x="-8"
   inkscape:window-y="-8"
   inkscape:window-maximized="1"
   inkscape:current-layer="Layer_1" />

<path
   style="fill:#aa0000;stroke-width:0.13860726"
   d="m 6.3608532,54.789804 c -0.6702554,-0.05492 -1.3503877,-0.167945 -1.5114098,-0.25117 -0.2049276,-0.105909 -0.3193969,-0.10679 -0.3815643,-0.0026 -0.06097,0.10196 -0.4570935,0.07641 -1.2657859,-0.0817 -2.43534574,-0.476123 -2.72703104,-0.921919 -2.39345576,-3.657848 0.22230996,-1.8233 0.21997436,-1.815696 0.48130186,-1.56185 0.1988015,0.193166 0.2084948,0.398271 0.085544,1.812323 -0.1605523,1.846985 -0.085285,2.124705 0.6896439,2.544142 0.8692955,0.47052 2.7631843,1.095267 2.1130258,0.697015 -0.1681743,-0.103033 -0.1431648,-0.150901 0.1349419,-0.258785 0.2987374,-0.115888 0.2461103,-0.142562 -0.422269,-0.21413 -1.8838334,-0.201622 -2.366978,-0.527003 -2.3773661,-1.60104 -0.00826,-0.867306 0.2300352,-0.904643 0.348621,-0.05459 0.064129,0.459849 0.1550242,0.723976 0.2147022,0.624199 0.07435,-0.124176 0.1499589,-0.08909 0.2682464,0.124535 0.090603,0.163603 0.2192052,0.262733 0.2857402,0.220272 0.066546,-0.04228 0.161055,-0.01445 0.210058,0.06239 0.048993,0.07677 0.2101365,0.137915 0.3580593,0.135783 0.2264192,-0.0031 0.2676112,-0.10258 0.2600801,-0.627523 -0.00486,-0.343032 0.053453,-0.624563 0.1296834,-0.625653 0.07621,-9.83e-4 0.140762,0.149863 0.1434177,0.335495 0.0061,0.424592 0.3229631,1.194149 0.3724916,0.904725 0.019659,-0.114677 0.070458,-0.505248 0.1128742,-0.867993 0.08735,-0.746796 0.3329103,-0.897887 0.3459591,-0.212902 0.00651,0.341763 0.040391,0.399792 0.1399352,0.240589 0.097468,-0.155689 0.1367322,-0.06692 0.1524006,0.344383 0.011698,0.304812 0.051326,0.475777 0.088424,0.379956 0.103691,-0.267985 0.2773954,-0.210315 0.4004398,0.13263 0.080361,0.224247 0.1301788,0.03462 0.1796134,-0.684586 0.083623,-1.21564 0.2692313,-1.494595 0.284497,-0.427639 0.00619,0.427435 0.074062,0.814827 0.1509417,0.860851 0.07689,0.046 0.1425908,-0.02916 0.1459237,-0.167199 0.00578,-0.227436 0.016241,-0.225813 0.1155585,0.01747 0.1018572,0.24963 0.1165643,0.24462 0.2118288,-0.07233 0.09019,-0.299775 0.1110848,-0.309228 0.1748299,-0.07891 0.058193,0.21035 0.09589,0.223406 0.1921183,0.06647 0.085688,-0.139714 0.1260902,-0.07721 0.1422809,0.22043 l 0.022477,0.415554 0.1514837,-0.510632 c 0.2047066,-0.690112 0.3550712,-0.811925 0.3624908,-0.29355 0.00794,0.554314 0.1440219,0.884993 0.3183613,0.773753 0.076086,-0.04857 0.1939799,-0.0031 0.2620387,0.10102 0.097066,0.148581 0.1235988,0.15023 0.1232405,0.008 -3.923e-4,-0.09977 0.062518,-0.14377 0.1393912,-0.09778 0.079255,0.04743 0.1455693,-0.08512 0.1531347,-0.305916 0.010872,-0.311302 0.025936,-0.329122 0.076364,-0.08867 0.034827,0.165493 0.1458213,0.367669 0.2470283,0.449207 0.1433579,0.115546 0.2053089,0.048 0.2807307,-0.305846 l 0.096811,-0.454118 0.1128327,0.455932 c 0.1519781,0.613702 0.2848527,0.713924 0.2915105,0.219849 l 0.00567,-0.404403 0.1963613,0.413058 0.1963599,0.413072 0.0012,-0.485187 c 5.79e-4,-0.266867 0.06058,-0.579623 0.1328089,-0.695014 0.09532,-0.152184 0.139199,-0.01926 0.159801,0.482885 0.02342,0.572524 0.04312,0.620342 0.112986,0.275633 0.06117,-0.302032 0.117899,-0.365678 0.205562,-0.230743 0.1005,0.154734 0.139907,0.15474 0.232518,1.52e-4 0.08323,-0.139096 0.147429,-0.09978 0.253353,0.154854 0.138358,0.332855 0.141928,0.333556 0.146145,0.02908 0.0046,-0.344631 0.279692,-0.443791 0.284583,-0.102632 0.0025,0.169849 0.06508,0.153846 0.30732,-0.07844 0.284899,-0.273155 0.310134,-0.276048 0.39652,-0.0457 0.08466,0.22574 0.09784,0.223106 0.160221,-0.03204 l 0.06789,-0.278224 0.02495,0.276886 c 0.02267,0.249872 0.04348,0.24282 0.212546,-0.07235 l 0.187638,-0.349241 0.154643,0.388025 c 0.209885,0.526723 0.197264,0.690965 -0.04627,0.601495 -0.112737,-0.04152 -0.298812,0.0212 -0.413439,0.139198 -0.243588,0.250653 -2.665831,0.432848 -2.9294526,0.220336 -0.1056335,-0.08512 -0.1844479,-0.06346 -0.2310254,0.06323 -0.054516,0.148367 -0.3195149,0.182361 -1.1576875,0.148545 -0.5978494,-0.02429 -1.1810363,-0.07756 -1.295992,-0.118656 -0.1149659,-0.04087 -0.6769532,-0.08165 -1.2488805,-0.09008 -0.5719365,-0.0084 -0.8991826,0.0088 -0.7272086,0.03886 0.1719636,0.0295 0.3134073,0.104545 0.3142869,0.166433 8.747e-4,0.06183 0.5788689,0.129378 1.2843979,0.150177 1.3463991,0.03969 1.8178559,0.163262 1.4758625,0.386905 -0.1024213,0.06705 -0.2487518,0.115241 -0.325112,0.107216 -0.076354,-0.0083 -0.6872227,-0.05959 -1.3574719,-0.114473 z m 2.2206775,-0.107448 c 0.094741,-0.04003 0.2506554,-0.04225 0.3464974,-0.0049 0.095906,0.03709 0.018261,0.06963 -0.1722351,0.07233 -0.1905709,0.0027 -0.2689931,-0.02768 -0.1742334,-0.06737 z m 0.7271055,-0.04593 c 0.1131909,-0.0817 0.4864427,-0.153719 0.8294358,-0.160115 1.007841,-0.01883 3.156135,-0.44489 3.981624,-0.789805 0.742782,-0.310326 1.096942,-0.670684 0.652934,-0.664329 -0.280174,0.0039 -0.276985,-0.03424 0.04881,-0.586497 0.346342,-0.586797 0.346315,-0.793372 -4.49e-4,-0.36526 l -0.26788,0.331069 -0.03237,-0.900574 -0.03237,-0.900578 -0.13256,0.625702 c -0.109117,0.515095 -0.152893,0.576982 -0.247624,0.350111 -0.06334,-0.151564 -0.124274,-0.610755 -0.135522,-1.020393 l -0.0204,-0.744793 -0.449066,0.10131 c -1.121683,0.253012 -2.030315,0.383182 -2.751386,0.394262 -0.658958,0.01 -0.7779459,0.04981 -0.7587809,0.254263 0.01949,0.205487 -0.099339,0.243433 -0.7816729,0.249916 -0.4424397,0.0038 -0.84877,-0.05775 -0.9030099,-0.137753 C 8.2540864,50.593028 8.0224622,50.519754 7.7935959,50.510405 6.8401457,50.470891 5.1094905,50.265628 4.461017,50.115177 3.6263209,49.921572 3.2553759,49.661498 3.9709295,49.771592 c 2.1450885,0.330023 5.9377424,0.385446 7.4269995,0.108578 0.451195,-0.08388 1.3631,-0.295518 2.026446,-0.470257 0.663347,-0.174744 1.25463,-0.267267 1.313964,-0.205585 0.05927,0.06163 0.03047,0.141101 -0.06453,0.176469 -0.199264,0.07439 -0.229355,0.596549 -0.03413,0.593761 0.0718,-9.83e-4 0.225468,0.29308 0.341485,0.653563 0.153301,0.476346 0.214091,0.560704 0.222534,0.308727 0.01774,-0.527622 0.283996,-0.05308 0.294949,0.525509 0.0078,0.409679 0.03114,0.437067 0.214166,0.248849 0.172199,-0.177184 0.17846,-0.330457 0.03894,-0.946156 -0.09154,-0.404123 -0.256213,-0.904343 -0.365809,-1.11164 -0.109597,-0.2073 -0.196274,-0.411025 -0.192615,-0.45272 0.0039,-0.04176 -0.0838,-0.163718 -0.194364,-0.271174 -0.217099,-0.210964 -0.858308,-0.175435 -1.305742,0.07233 -0.310685,0.172046 -3.205268,0.616288 -4.0990036,0.629083 -0.5702191,0.008 -0.601634,-0.0128 -0.666073,-0.440985 -0.037299,-0.247254 -0.039807,-0.948993 -0.00577,-1.559405 0.05787,-1.039786 0.081515,-1.109452 0.3738339,-1.10332 0.1716022,0.0039 0.3109106,-0.06974 0.3095791,-0.16287 -0.00209,-0.146189 0.2841333,-0.341787 0.5047416,-0.344946 0.03907,-4.92e-4 0.05368,0.624814 0.03238,1.389715 -0.0398,1.425619 -0.2567931,2.071149 -0.4385421,1.304623 -0.1639621,-0.691318 -0.1912102,-0.693768 -0.1927567,-0.01715 -0.00129,0.560503 0.037867,0.657915 0.2643202,0.65467 0.6167656,-0.0088 0.7024296,-0.141103 0.6892096,-1.064355 -0.01,-0.695199 0.03205,-0.886672 0.195212,-0.889004 0.162634,-0.0025 0.210607,0.185762 0.220319,0.864231 l 0.01253,0.8672 0.58835,-0.05512 0.588353,-0.0551 -0.01904,-1.32825 c -0.0128,-0.898588 0.03371,-1.346904 0.144051,-1.385685 0.09727,-0.03427 0.188533,0.127453 0.226113,0.400688 0.05833,0.423042 0.06419,0.414647 0.07719,-0.109805 0.0087,-0.37068 0.109089,-0.656343 0.287638,-0.822687 0.271235,-0.252608 0.273959,-0.245403 0.316825,0.840364 l 0.04326,1.095182 0.02734,-1.040048 c 0.03209,-1.223726 0.110838,-1.665044 0.297359,-1.667714 0.08165,-0.0011 0.145836,0.690348 0.160732,1.730461 0.02073,1.447529 0.05902,1.731924 0.232715,1.72944 0.172615,-0.0025 0.204044,-0.270531 0.185309,-1.579474 -0.02342,-1.636892 0.05881,-2.444048 0.249384,-2.446776 0.06113,-8.77e-4 0.141174,0.107148 0.177956,0.240043 0.03699,0.132921 0.0698,-0.05839 0.07337,-0.425103 0.0037,-0.378648 -0.04861,-0.63159 -0.120956,-0.585399 -0.147778,0.09424 -0.230496,-0.14557 -0.37028,-1.073194 -0.09011,-0.598401 -0.07099,-0.675553 0.185625,-0.746589 0.157375,-0.04357 0.285397,-0.132355 0.284464,-0.197294 -9.51e-4,-0.06494 -0.100937,-0.07835 -0.222355,-0.0297 -0.668442,0.267539 -0.634955,-1.507816 0.05226,-2.769355 0.08261,-0.151594 0.120625,-1.925058 0.09612,-4.483385 -0.03987,-4.141893 -0.03519,-4.222773 0.212234,-3.774228 0.13908,0.252112 0.257032,0.567469 0.262097,0.700818 0.0049,0.133373 0.06431,0.241678 0.131678,0.240711 0.06729,-9.53e-4 0.148357,-1.365651 0.18007,-3.03264 0.07068,-3.717561 -0.01103,-4.091029 -1.184086,-5.406983 -0.934483,-1.048384 -1.589723,-2.25712 -1.726292,-3.184548 -0.08124,-0.55185 -0.134171,-0.646999 -0.287135,-0.516314 -0.269821,0.230551 -0.25093,-0.150819 0.06783,-1.368599 0.422212,-1.613181 0.379182,-2.193456 -0.707211,-9.5311575 C 11.22297,7.2678656 11.09661,5.888329 11.123402,5.4261618 c 0.03205,-0.5556827 -3.59e-4,-0.8205733 -0.09685,-0.782039 -0.09353,0.03746 -0.150454,-0.284179 -0.159274,-0.9001831 -0.0078,-0.5271473 0.03246,-0.9308116 0.08892,-0.8970293 0.05641,0.033842 0.201896,0.3532349 0.323224,0.7098991 l 0.22066,0.6481256 -0.08635,-0.7611833 c -0.04734,-0.4186548 -0.08466,-0.9473282 -0.08261,-1.1748398 0.003,-0.3183254 -0.03333,-0.375348 -0.157866,-0.2474294 -0.259682,0.2672666 -0.956479,-0.1458089 -0.962561,-0.5706374 -0.0045,-0.3072327 0.02908,-0.3271243 0.352901,-0.2093037 0.196767,0.071529 0.479213,0.1929692 0.627663,0.2697102 0.20926,0.1081688 0.269241,0.094338 0.267026,-0.062108 C 11.454602,1.188738 10.434534,0.86941163 9.0695568,0.70131416 7.9738537,0.56637871 6.1015763,0.73448166 5.2524932,1.0443142 l -0.4053213,0.147839 0.049095,1.6919419 c 0.026918,0.930571 0.1297799,2.0132566 0.2282597,2.40597 0.1331258,0.5308508 0.1441096,0.919521 0.042695,1.5150266 C 5.0922306,7.2456299 5.036767,8.012963 5.0438986,8.5102469 5.0597476,9.6160445 4.7453657,12.700246 4.2570996,16.230105 4.0836595,17.484052 4.0876181,17.72331 4.2974916,18.691491 4.6194738,20.174129 4.4348434,20.798974 3.1585351,22.545684 2.6267286,23.273515 1.9238087,24.344037 1.5964987,24.924615 1.0313839,25.927008 0.90435618,25.973413 0.98299937,25.14876 1.0257041,24.701244 1.3646184,24.118421 2.407189,22.699729 2.9462678,21.966189 3.5263695,21.084577 3.6963258,20.74057 3.9966472,20.132733 4.0002889,20.068322 3.8259949,18.454458 3.6802932,17.10517 3.6805141,16.546387 3.8273384,15.474084 4.2147137,12.642425 4.4063031,10.738414 4.5048646,8.7409894 4.5613222,7.5965515 4.6578105,6.4673894 4.7192231,6.2317406 4.7955773,5.9386294 4.7626298,5.6106338 4.6147465,5.1935697 4.4593772,4.7553309 4.4185767,4.2977789 4.4696932,3.5666437 4.5105086,2.9832472 4.4728977,2.2954128 4.3817132,1.9538138 4.1631597,1.1355008 4.3401236,0.84774727 5.2408623,0.55842572 7.1468749,-0.05393382 9.8323249,-0.06174022 11.290198,0.5408329 l 0.744173,0.30757177 -0.08827,0.63604093 c -0.0486,0.3498187 -0.09659,1.1351937 -0.106732,1.7452724 -0.01,0.6100775 -0.05944,1.6088613 -0.109612,2.2195149 -0.07224,0.8797022 -0.02277,1.480452 0.238061,2.8926932 0.181082,0.9803319 0.301622,1.8948229 0.267776,2.0322119 -0.03411,0.137394 0.07018,1.203086 0.231217,2.368214 0.212457,1.537284 0.293215,2.821893 0.2944,4.682881 l 0.0016,2.564477 0.444772,0.907158 c 0.244625,0.498944 0.765522,1.251327 1.157561,1.671968 1.448682,1.554372 1.433138,1.467215 1.53429,8.604315 0.04651,3.277731 0.049,7.33238 0.0056,9.010317 -0.0718,2.781675 0.120625,8.630453 0.362612,11.015228 0.07839,0.772634 0.04613,0.988486 -0.22929,1.528115 -0.358549,0.702872 -1.14503,1.23396 -2.436833,1.645522 -0.890156,0.283596 -4.6402335,0.514271 -4.2934894,0.26407 z m 3.3767278,-6.054888 c -0.0052,-0.252161 -0.03185,-0.271635 -0.137946,-0.102002 -0.169783,0.271192 -0.167668,0.418277 0.0058,0.415794 0.07623,-9.84e-4 0.135615,-0.142309 0.131997,-0.313801 z m 0.510713,-0.137283 c -0.046,-0.109915 -0.07822,-0.07662 -0.08255,0.08491 -0.0037,0.146189 0.02994,0.227595 0.07543,0.180871 0.04539,-0.04666 0.04842,-0.166399 0.0078,-0.265816 z m 2.213305,-3.263313 c 0.100014,0.37721 0.23356,-0.842885 0.212678,-1.943753 -0.01294,-0.685984 -0.04184,-1.028663 -0.06429,-0.761495 -0.112956,1.348835 -0.187076,1.709379 -0.312024,1.518063 -0.0807,-0.123556 -0.115586,0.210738 -0.09529,0.913644 0.02465,0.850186 0.05427,0.995137 0.127165,0.621986 0.05229,-0.267606 0.111552,-0.424434 0.131802,-0.348453 z m -0.242893,-7.41276 c -0.04233,-2.956649 -0.114471,-4.572874 -0.204085,-4.571591 -0.0896,0.0012 -0.11545,1.618912 -0.07311,4.575563 0.04234,2.95665 0.114444,4.57287 0.204088,4.571586 0.08959,-0.0012 0.115464,-1.618901 0.07313,-4.575558 z M 13.34425,53.42386 c -0.17484,-0.210714 0.02954,-0.853404 0.232706,-0.7318 0.07759,0.04643 0.145555,-0.02874 0.151214,-0.166529 0.0074,-0.177791 0.044,-0.150369 0.126159,0.09399 0.107906,0.321068 0.116579,0.323879 0.125334,0.04147 0.01727,-0.56141 0.283895,-0.500793 0.292023,0.06644 0.008,0.561289 -0.305198,1.044509 -0.450793,0.695846 -0.05695,-0.136195 -0.0764,-0.137323 -0.08284,-0.0044 -0.0042,0.09541 -0.06316,0.174181 -0.130069,0.175142 -0.06688,9.51e-4 -0.185589,-0.07523 -0.263732,-0.169492 z M 5.1180779,52.406168 c -0.0061,-0.42467 0.0724,-0.460093 0.1775742,-0.08016 0.042168,0.151805 0.020639,0.311756 -0.048073,0.355429 -0.068465,0.04363 -0.1267511,-0.08016 -0.1295326,-0.27526 z M 2.1590127,52.141962 c -0.050418,-0.04899 -0.1361262,-0.39087 -0.1904858,-0.759695 -0.054341,-0.368799 -0.1530377,-0.669781 -0.2194745,-0.668831 -0.1681455,0.0025 -0.1654445,-0.932248 0.00258,-1.039702 0.082962,-0.05294 0.1405547,0.135121 0.1454231,0.474913 0.00445,0.309398 0.062395,0.561775 0.1288159,0.560823 0.0664,-9.52e-4 0.1676654,0.316798 0.2249758,0.706071 0.1041184,0.707362 0.080453,0.894201 -0.092223,0.726421 z m 4.1557823,-0.06208 c -0.1711532,-0.16641 -0.1057704,-0.714853 0.1119933,-0.938949 0.2806281,-0.288736 1.0253728,-0.306593 1.0294069,-0.02483 0.00258,0.182337 -0.4466342,0.301949 -0.8749309,0.232906 -0.063861,-0.0106 -0.071975,0.169572 -0.01781,0.399688 0.091026,0.387827 -0.027722,0.545711 -0.2485036,0.330978 z m 6.140603,-0.653855 c -0.01033,-0.426748 -0.112185,-0.513726 -0.53073,-0.453267 -0.09514,0.01386 -0.17386,-0.03783 -0.174924,-0.115284 -9.83e-4,-0.07719 -0.09507,-0.103097 -0.208764,-0.05756 -0.113727,0.04562 -0.207664,0.02059 -0.208708,-0.05457 -0.0025,-0.17057 0.334298,-0.261199 0.966622,-0.260342 0.43561,9.54e-4 0.48996,0.04306 0.531895,0.415857 0.02553,0.228371 -0.04584,0.54128 -0.158927,0.695384 -0.197253,0.268748 -0.206071,0.261803 -0.216466,-0.170176 z M 4.1963452,50.961501 C 3.828789,50.916851 3.6398767,50.823602 3.6379037,50.686039 c -0.00165,-0.116991 0.088309,-0.184986 0.2056997,-0.15552 0.1147873,0.02898 0.3813826,0.07892 0.5924454,0.111457 0.388382,0.0598 0.6146651,0.239838 0.4212045,0.335111 -0.057996,0.02879 -0.3554501,0.02164 -0.6609329,-0.01543 z M 3.1168223,50.597947 C 2.9829821,50.565067 2.8720832,50.448548 2.8705272,50.33914 c -0.00238,-0.164158 0.045854,-0.169404 0.2768275,-0.02974 0.1538214,0.09301 0.2803494,0.216509 0.2811774,0.274385 8.756e-4,0.05786 -0.014156,0.09825 -0.033298,0.08966 -0.019153,-0.0087 -0.1444638,-0.04245 -0.2783752,-0.07537 z m 3.0673848,-1.183893 -0.763424,-0.07046 -0.062406,-1.627911 c -0.059627,-1.556828 -0.049973,-1.628083 0.2192341,-1.63194 0.2659964,-0.0039 0.2828212,0.08034 0.3034157,1.520495 0.013216,0.923957 0.076437,1.523738 0.1604212,1.522536 0.083096,-0.0011 0.1307024,-0.553628 0.1188905,-1.379728 -0.019989,-1.396019 0.1347354,-1.857919 0.3990829,-1.191503 0.1973883,0.497512 0.1841689,0.590393 -0.094671,0.667535 -0.2206672,0.06107 -0.221138,0.06799 -0.00546,0.07953 0.1930712,0.01033 0.2463581,0.182182 0.2906569,0.936573 0.034114,0.583072 0.1181749,0.943997 0.2276759,0.978431 0.1068989,0.03359 0.1676581,-0.06942 0.1583974,-0.268453 -0.00794,-0.177675 -0.016716,-0.9624 -0.017429,-1.743868 -0.00216,-1.310318 0.01875,-1.421141 0.2679056,-1.424711 0.2220238,-0.0033 0.2716731,0.09334 0.2781263,0.538958 0.00445,0.304556 -0.067857,0.574584 -0.1644697,0.615201 -0.1377823,0.05787 -0.1375582,0.07404 0.00114,0.08087 0.1229514,0.0057 0.1778923,0.322918 0.1888678,1.08949 0.0094,0.65601 0.081817,1.145481 0.1841896,1.24496 0.185252,0.180029 -0.2530167,0.196585 -1.6902509,0.06419 z M 4.610002,49.193507 C 4.55846,49.143417 4.506531,48.422456 4.4946231,47.591372 c -0.021311,-1.487761 -0.01685,-1.510456 0.2908428,-1.471249 0.2900974,0.03716 0.31664,0.11922 0.3706425,1.14797 0.031843,0.60948 0.023551,1.311366 -0.018544,1.559753 -0.071212,0.418848 -0.3055695,0.581331 -0.5275303,0.365671 z M 2.8448972,48.548762 c -0.00381,-0.2668 0.055467,-0.485962 0.1315842,-0.487081 0.076241,-9.83e-4 0.1417359,0.216307 0.1455561,0.48309 0.00381,0.266797 -0.055457,0.485964 -0.1315831,0.487088 -0.07621,9.83e-4 -0.1417349,-0.216314 -0.1455572,-0.483097 z m 1.0711007,0.380316 c -0.1184083,-0.115077 -0.1237638,-1.900823 -0.00753,-2.474866 0.1350668,-0.666431 0.2551551,-0.242739 0.3287855,1.160037 0.063985,1.219216 -0.028869,1.599064 -0.3213412,1.314826 z M 2.0910477,48.598066 C 1.9699951,48.430339 1.8725818,48.104254 1.8746055,47.873403 c 0.0032,-0.359946 0.021198,-0.380508 0.1268192,-0.144273 0.071575,0.160296 0.09463,-1.995289 0.055044,-5.156263 -0.037625,-2.98744 -0.014455,-5.465935 0.051099,-5.507737 0.2067148,-0.1319 0.2849853,1.704042 0.2827324,6.633229 -0.00165,3.737468 0.036624,4.826121 0.1763373,4.98947 0.1470884,0.172139 0.1402894,0.209478 -0.038254,0.212035 -0.1193035,0.0016 -0.316096,-0.134103 -0.4371691,-0.301831 z m 9.0268843,0.08642 c -0.05156,-0.05009 -0.09846,-0.421485 -0.104242,-0.825358 -0.0083,-0.575223 0.04514,-0.765123 0.246482,-0.87659 0.331276,-0.183439 0.433038,-0.07385 0.440893,0.474883 0.01461,1.015388 -0.243088,1.557505 -0.583126,1.227065 z M 0.88753881,37.703456 c -0.0957757,-6.688428 -0.10794485,-11.111603 -0.0307688,-11.16085 0.0702936,-0.04501 0.18008129,-0.0033 0.24389049,0.09238 0.063778,0.09565 0.1816506,4.757846 0.2618642,10.360472 0.080206,5.602629 0.206463,10.544413 0.2805662,10.981742 l 0.1347086,0.795144 -0.3658557,0.0053 -0.365864,0.0053 z M 8.1930877,47.84372 c -0.1021256,-0.858009 -0.062498,-1.103119 0.1788959,-1.106576 0.1610397,-0.0025 0.1917621,1.522358 0.035529,1.776226 C 8.3361756,48.629423 8.2568,48.381649 8.1927338,47.843729 Z m 2.2470283,-1.317737 c -0.008,-0.557592 0.04585,-0.781667 0.202725,-0.844478 0.180102,-0.07208 0.208827,0.03746 0.183283,0.699355 -0.04134,1.072176 -0.370783,1.196121 -0.385981,0.145143 z m 0.54942,-0.3531 c -0.0087,-0.613487 0.156559,-1.000307 0.429223,-1.004218 0.176765,-0.0027 0.146943,1.311381 -0.03403,1.497603 -0.292274,0.30076 -0.385513,0.18437 -0.395216,-0.493385 z m -2.9796642,0.0169 c -0.1076288,-0.458667 0.084252,-0.834972 0.4283381,-0.839904 0.3022454,-0.0044 0.2082674,1.158134 -0.098719,1.220876 -0.1593598,0.03246 -0.2598717,-0.08344 -0.3296218,-0.380985 z M 1.6670193,46.157253 C 1.5272463,45.568313 1.4078788,35.79822 1.5346515,35.329336 c 0.2316694,-0.856477 0.461877,6.47157 0.3090304,9.837709 -0.050645,1.115783 -0.092017,1.347405 -0.17674,0.990205 z m 7.2364138,-0.458157 c -0.00667,-0.478157 0.048366,-0.633365 0.2489347,-0.700201 0.1417656,-0.04723 0.3674061,-0.210619 0.5014561,-0.363076 0.3748951,-0.42635 0.4771001,-0.340509 0.4878421,0.409782 0.0088,0.617692 -0.02594,0.699842 -0.3297018,0.78074 -0.1867916,0.04977 -0.4108727,0.178916 -0.4980466,0.286995 -0.2768983,0.343561 -0.4014691,0.217876 -0.4105173,-0.41426 z m 3.0454399,-0.296239 c -0.0074,-0.508484 0.05744,-0.820696 0.194512,-0.937777 0.178355,-0.152423 0.206851,-0.07509 0.216328,0.586752 0.0072,0.508491 -0.05744,0.820696 -0.1945,0.93778 -0.178343,0.152429 -0.206879,0.07511 -0.216347,-0.586758 z M 3.8619666,45.72729 C 3.8214199,45.594454 3.7400623,45.065386 3.6810625,44.5516 l -0.1073263,-0.934156 0.3626208,-0.0052 c 0.3295259,-0.0046 0.3633312,0.04444 0.3704091,0.539019 0.00578,0.401757 -0.055477,0.561706 -0.2338514,0.611061 -0.2169832,0.06005 -0.2152268,0.0681 0.017294,0.07925 0.1985157,0.0098 0.2405069,0.08535 0.1798602,0.325416 -0.043613,0.172131 -0.078387,0.422195 -0.077551,0.555588 8.736e-4,0.133401 -0.05654,0.243416 -0.127645,0.244425 -0.071068,9.83e-4 -0.1624119,-0.106857 -0.2028852,-0.239697 z m 0.6013983,-0.320518 c -0.00733,-0.515626 0.023376,-0.56962 0.3042706,-0.533824 0.2560751,0.03278 0.3137304,0.127371 0.3194185,0.524893 0.00568,0.39754 -0.0492,0.493881 -0.3042696,0.533828 -0.2797267,0.04401 -0.3120402,-0.0091 -0.3194195,-0.524897 z m 0.8364162,-0.69259 c -0.012936,-0.797472 0.032875,-1.116638 0.1691087,-1.17115 0.1030137,-0.04147 0.2250255,-0.03829 0.2712602,0.0068 0.1570512,0.152625 0.09783,0.982154 -0.07526,1.054898 -0.1377824,0.05787 -0.1375716,0.07408 0.00114,0.08088 0.1079728,0.0056 0.1763857,0.217591 0.1813305,0.562829 0.00651,0.456137 -0.039691,0.555049 -0.2607337,0.55822 -0.2429869,0.0037 -0.2703682,-0.101012 -0.2868036,-1.092371 z m 0.9217336,0.852249 c -0.1750238,-0.170065 -0.1055638,-0.846373 0.095198,-0.926702 0.2678064,-0.107189 0.4161792,0.36855 0.2283274,0.732003 -0.1618017,0.313076 -0.186393,0.327859 -0.3234701,0.194706 z m 4.1926063,-0.856034 c -0.0071,-0.489537 0.0591,-0.800499 0.194795,-0.916457 0.178733,-0.152655 0.206983,-0.06713 0.21737,0.658196 0.0087,0.613215 -0.04274,0.855578 -0.194843,0.916446 -0.167906,0.06722 -0.208785,-0.05637 -0.21735,-0.658195 z m 2.220163,0.0072 c -0.0046,-0.409544 0.05062,-0.839029 0.122829,-0.954434 0.116755,-0.186507 0.132726,-0.186739 0.143521,-0.0022 0.0068,0.114263 0.04836,0.460983 0.09247,0.770473 0.05845,0.40971 0.02181,0.612732 -0.135011,0.746669 -0.191259,0.163409 -0.216223,0.100803 -0.223829,-0.560655 z m -5.5186583,0.142086 c 0.051346,-0.732013 0.3783378,-0.784587 0.3886762,-0.06245 0.0061,0.42036 -0.047527,0.56671 -0.2081478,0.569009 -0.1644852,0.0025 -0.2076783,-0.118889 -0.1805202,-0.506534 z m 0.9395311,-0.316335 c -0.00794,-0.561968 0.306066,-0.892761 0.466671,-0.491473 0.159437,0.398395 0.090045,0.731915 -0.1838128,0.883574 -0.2533802,0.140292 -0.2756833,0.109366 -0.2828655,-0.392118 z m 2.9055762,-0.382397 c -0.008,-0.555104 0.06174,-0.845421 0.261266,-1.08823 l 0.272109,-0.331131 -0.01934,1.038465 c -0.0161,0.862595 -0.06035,1.046901 -0.261265,1.088226 -0.206441,0.04251 -0.24349,-0.06097 -0.252718,-0.707312 z m -6.5141526,0.07332 c -0.00454,-0.321962 0.068342,-0.529273 0.205544,-0.58419 0.2769947,-0.110866 0.3040485,-0.07408 0.3691608,0.501365 0.046824,0.414361 0.01001,0.491431 -0.2563869,0.533142 -0.2733005,0.04299 -0.3120815,-0.01211 -0.318353,-0.450321 z M 13.27318,43.929338 c 0.08103,-0.983346 0.141425,-1.034486 0.166486,-0.140996 0.01184,0.438234 -0.03259,0.797537 -0.09923,0.798493 -0.06682,9.5e-4 -0.09714,-0.294926 -0.0672,-0.657489 z m -4.3684113,0.08786 c 0.019864,-0.28833 0.1180773,-0.552438 0.2180134,-0.586869 0.1334001,-0.04591 0.1719773,0.07658 0.1452467,0.46166 -0.019864,0.288339 -0.1181061,0.55245 -0.2180184,0.586882 -0.1333861,0.04588 -0.1720061,-0.07656 -0.1452457,-0.461668 z m -2.793998,0.268601 c -0.00381,-0.270661 0.1653928,-0.563013 0.2847407,-0.491617 0.2076348,0.124243 0.1481054,0.612701 -0.075012,0.615894 -0.1143603,0.0016 -0.2087308,-0.05418 -0.2097076,-0.124275 z m 5.8046943,-1.216535 c -0.01184,-0.824077 0.04347,-1.263473 0.182688,-1.453187 0.197037,-0.268392 0.199956,-0.268309 0.223774,0.0046 0.08259,0.946825 -0.0214,2.240378 -0.194873,2.423718 -0.168999,0.178598 -0.196915,0.04968 -0.211594,-0.975483 z m -4.7020616,0.773537 c -0.00216,-0.152438 0.058409,-0.278082 0.1346393,-0.279177 0.07621,-9.83e-4 0.1403792,0.122774 0.1425764,0.275212 0.00216,0.152457 -0.05843,0.278081 -0.1346537,0.279172 -0.07623,9.83e-4 -0.1403937,-0.122746 -0.1425754,-0.27521 z m 2.2159523,-0.139523 c -0.00577,-0.401759 0.3222965,-1.005791 0.5478944,-1.009034 0.2380999,-0.0037 0.1538639,0.916179 -0.1061294,1.158322 -0.3482279,0.324308 -0.4353809,0.294855 -0.4417282,-0.149327 z M 8.0627932,43.181339 c 0.044192,-0.868491 0.3745081,-0.992585 0.3866422,-0.145277 0.00619,0.433245 -0.055745,0.646257 -0.2054097,0.706132 -0.1781763,0.07129 -0.2086664,-0.02322 -0.1813018,-0.560878 z m -4.4637213,-0.04943 c -0.00381,-0.277189 0.064345,-0.347489 0.3415298,-0.351454 0.2771919,-0.0039 0.3474873,0.06435 0.3514542,0.341535 0.00381,0.277186 -0.064345,0.347482 -0.3415297,0.351451 -0.277192,0.0039 -0.3474843,-0.06436 -0.3514543,-0.341532 z m 0.9703195,-0.0023 c -0.0034,-0.232908 0.070861,-0.359135 0.2124184,-0.361154 0.1444648,-0.0022 0.2041108,0.09821 0.1775454,0.29848 -0.058967,0.444628 -0.3837461,0.496819 -0.3899638,0.06266 z m 0.8303946,-0.09277 c -0.00216,-0.152462 0.058409,-0.27808 0.1346528,-0.279173 0.076231,-9.83e-4 0.1403637,0.122758 0.1425629,0.275208 0.00216,0.152458 -0.058409,0.278082 -0.134626,0.279177 -0.07621,9.83e-4 -0.1403946,-0.122746 -0.1425763,-0.275211 z m 4.980374,0.188299 c -0.140246,-0.536683 -0.09805,-0.932003 0.131433,-1.231681 l 0.26833,-0.350404 0.0128,0.641303 c 0.0083,0.40412 -0.0637,0.706199 -0.193168,0.816811 -0.112985,0.09653 -0.211494,0.152355 -0.218834,0.124093 z m 2.274659,-1.626086 c 0.02086,-0.810219 0.0716,-1.507518 0.112378,-1.54955 0.04074,-0.04192 0.08422,0.620005 0.0964,1.471198 0.01294,0.908404 -0.03346,1.548423 -0.112392,1.549556 -0.08226,0.0011 -0.11973,-0.570344 -0.09643,-1.471206 z m -6.2770811,1.204346 c 0.00455,-0.161545 0.036747,-0.194872 0.082528,-0.08491 0.041465,0.09948 0.038234,0.219076 -0.00703,0.265792 -0.0454,0.0467 -0.079296,-0.03498 -0.075404,-0.180859 z m 3.0786977,-0.746385 c 0.1344878,-1.09772 0.6220614,-1.423976 0.6363584,-0.425788 0.0058,0.407395 -0.07228,0.67756 -0.2416804,0.835159 -0.3959817,0.368805 -0.4795411,0.28216 -0.3948144,-0.409429 z M 3.7054453,42.43806 c -0.038276,-0.03721 -0.044552,-0.255377 -0.014455,-0.484976 0.038894,-0.29482 0.1320787,-0.418486 0.3166359,-0.421163 0.2064329,-0.003 0.2629349,0.09836 0.2684166,0.481335 0.00546,0.377986 -0.049117,0.48587 -0.2471418,0.488711 -0.139743,0.0022 -0.2853643,-0.02657 -0.3235682,-0.06386 z m 0.8497211,-0.301715 c -0.00619,-0.434184 0.3199421,-0.391307 0.39159,0.05147 0.032173,0.199485 -0.024574,0.301417 -0.1689156,0.303487 -0.1414994,0.0022 -0.2193281,-0.122015 -0.2226609,-0.354934 z m 0.8347013,0.207535 c -0.00103,-0.07624 0.060453,-0.139479 0.1366364,-0.1406 0.07621,-9.84e-4 0.1394478,0.06046 0.14057,0.136635 0.00103,0.07621 -0.060453,0.139466 -0.1366219,0.140571 -0.07621,9.83e-4 -0.1394786,-0.06047 -0.1405845,-0.136606 z m 3.5264899,-0.06261 c -0.052426,-0.08214 -0.026691,-0.219731 0.056775,-0.305792 0.1115797,-0.114885 0.1531783,-0.0754 0.1563868,0.148455 0.00468,0.334642 -0.066468,0.38724 -0.213149,0.157296 z m 2.0175894,-0.398028 c -9.53e-4,-0.285901 0.114721,-0.739793 0.256976,-1.008687 l 0.258606,-0.488879 0.01484,0.651724 c 0.01491,0.657137 -0.197737,1.360907 -0.412564,1.364056 -0.06401,9.53e-4 -0.117073,-0.232257 -0.117926,-0.518145 z m 2.212409,0.01941 c -0.0016,-0.11436 0.0587,-0.247377 0.134407,-0.295532 0.07557,-0.04821 0.138711,0.0056 0.140348,0.120295 0.0016,0.114359 -0.05889,0.247342 -0.134419,0.295519 -0.07557,0.04818 -0.138713,-0.0058 -0.140349,-0.120295 z m -2.815744,-0.773264 c 0.05191,-0.851624 0.139922,-1.21495 0.294714,-1.217163 0.180581,-0.0026 0.191824,1.190572 0.01446,1.533744 -0.226552,0.43827 -0.347621,0.314267 -0.309157,-0.31659 z m -1.4906396,0.136883 c -0.00338,-0.23291 0.070867,-0.359133 0.2124185,-0.361154 0.1444645,-0.0022 0.2041097,0.09822 0.1775434,0.29848 -0.058974,0.444623 -0.383747,0.496825 -0.3899599,0.06264 z M 5.2506812,40.820945 c -0.00197,-0.381189 0.051832,-0.693847 0.1207077,-0.694836 0.06892,-9.83e-4 0.1297112,0.31005 0.1351629,0.691174 0.00546,0.381142 -0.048869,0.69381 -0.1207356,0.694837 -0.071863,9.82e-4 -0.1326982,-0.310006 -0.1351763,-0.691176 z m 4.3125045,-0.616224 c 0.043987,-0.419978 0.085187,-0.950781 0.091646,-1.179588 l 0.011435,-0.416041 0.1117599,0.414278 c 0.2056915,0.76252 0.1757285,1.545318 -0.067065,1.751409 -0.2093902,0.177755 -0.2214348,0.131266 -0.1479735,-0.570055 z m 1.4493603,0.308665 c -0.08633,-0.139863 0.06425,-2.381022 0.167101,-2.486833 0.03809,-0.03919 0.115545,0.326246 0.172355,0.811869 0.07223,0.617903 0.04794,1.019936 -0.08092,1.339185 -0.101259,0.250932 -0.217652,0.402016 -0.258488,0.33578 z m 0.867146,-0.09107 c -3.98e-4,-0.09975 0.05864,-0.275874 0.130674,-0.391333 0.106802,-0.170582 0.132546,-0.153058 0.137797,0.0938 0.0037,0.166971 -0.05531,0.343045 -0.130674,0.391324 -0.07557,0.04821 -0.137572,0.0062 -0.137827,-0.0938 z m 1.313843,-0.128115 c -0.162342,-0.487311 -0.242279,-8.332139 -0.08906,-8.734735 0.114637,-0.30107 0.149425,-0.216739 0.255783,0.620141 0.198301,1.560787 0.269069,7.85464 0.09203,8.165272 -0.146221,0.256104 -0.157054,0.253989 -0.258561,-0.05069 z m -8.5876588,0.12974 c -0.044977,-0.07035 -0.018925,-0.167953 0.058161,-0.216914 0.076746,-0.04902 0.1409831,0.008 0.142694,0.126958 0.00362,0.243441 -0.079223,0.280457 -0.2007242,0.08998 z M 3.6969778,40.288775 c -0.00103,-0.07625 0.1227716,-0.140391 0.2752134,-0.142575 0.152436,-0.0023 0.2780852,0.05843 0.2791744,0.134654 0.00103,0.07624 -0.1227726,0.140376 -0.2752095,0.142561 -0.1524667,0.0023 -0.2780902,-0.05843 -0.2791805,-0.134627 z m 6.6488202,-1.030887 c 0.0032,-0.133498 0.05807,-0.368189 0.121423,-0.521573 0.09234,-0.223746 0.11856,-0.176145 0.132327,0.240702 0.0094,0.285785 -0.04518,0.520478 -0.121424,0.521567 -0.07623,9.84e-4 -0.135741,-0.107243 -0.132326,-0.240696 z m -6.6648356,-0.08803 c -0.00258,-0.198343 0.070799,-0.274016 0.2374971,-0.244392 0.3622781,0.0644 0.4091416,0.522545 0.053969,0.527632 -0.1983432,0.0027 -0.2887147,-0.08467 -0.2914828,-0.283253 z m 0.7910787,0.186557 c -0.1833348,-0.178154 -0.09911,-0.324923 0.1887966,-0.329045 0.1613339,-0.0025 0.2655122,0.06904 0.2362375,0.161227 -0.0648,0.203419 -0.2947643,0.294357 -0.4250289,0.167789 z m 7.3220829,-0.28416 c -0.109322,-0.171333 0.05217,-1.25675 0.187253,-1.258687 0.125593,-0.0017 0.274202,0.960182 0.187001,1.210266 -0.07187,0.205884 -0.258372,0.230026 -0.374221,0.04848 z m 2.12894,-1.840966 c -0.02018,-1.076976 0.01417,-1.526933 0.1069,-1.387756 0.168177,0.25228 0.197744,2.317296 0.03869,2.702574 -0.07353,0.178105 -0.126172,-0.29713 -0.145601,-1.314818 z M 3.669199,38.348497 c -0.00103,-0.07625 0.1227717,-0.140377 0.2752147,-0.142575 0.152444,-0.0023 0.2780862,0.05837 0.2791744,0.134653 0.00103,0.07624 -0.1227583,0.140408 -0.2752106,0.142576 -0.1524626,0.0023 -0.2780861,-0.05843 -0.2791785,-0.134654 z m 0.6929684,-0.0099 c -0.00103,-0.07624 0.1227594,-0.140379 0.2752106,-0.142575 0.1524605,-0.0023 0.2780893,0.05837 0.2791796,0.134652 0.00103,0.07624 -0.1227583,0.140379 -0.2752146,0.142577 -0.1524462,0.0023 -0.2780862,-0.05843 -0.2791756,-0.134654 z m 8.0606186,-0.669878 c -0.0078,-0.419239 0.02545,-1.293011 0.07295,-1.941753 l 0.08651,-1.179522 0.02698,1.524453 c 0.01495,0.838451 -0.01813,1.712236 -0.07297,1.941753 -0.08178,0.341816 -0.102229,0.279449 -0.11341,-0.344942 z m -8.7615208,0.125415 c -0.00103,-0.07625 0.1264206,-0.140452 0.2833798,-0.142693 0.1569519,-0.0023 0.2477221,0.0588 0.2017216,0.135741 -0.046008,0.07692 -0.1735878,0.141115 -0.2833861,0.142694 -0.109859,0.0015 -0.2006664,-0.05938 -0.2017194,-0.135755 z m 0.7622634,-0.01088 c -0.048187,-0.07557 0.040598,-0.139227 0.1977423,-0.14147 0.1569508,-0.0023 0.2862614,0.0583 0.287357,0.134501 0.00103,0.07624 -0.087886,0.13989 -0.1977423,0.141468 -0.1098591,0.0015 -0.239113,-0.05903 -0.2873467,-0.134542 z M 10.257993,36.6947 c -0.04274,-0.628393 -0.126957,-1.313099 -0.186624,-1.521583 -0.05971,-0.208464 -0.06671,-0.738603 -0.01583,-1.178046 l 0.09297,-0.799005 0.185009,0.413227 c 0.119937,0.26776 0.197331,1.083975 0.219894,2.318767 0.038,2.076837 -0.1693,2.614467 -0.295582,0.766658 z m -6.6036694,0.614378 c -0.0034,-0.23318 0.021848,-0.24295 0.3325893,-0.128858 0.2551427,0.09372 0.1633338,0.329698 -0.129862,0.333904 -0.1098592,0.0015 -0.2010598,-0.09073 -0.2027035,-0.205053 z m 0.7632514,0.0584 c -0.048187,-0.07555 0.044605,-0.139229 0.2059024,-0.141589 0.161462,-0.0025 0.2558582,0.0588 0.209868,0.135632 -0.046008,0.07692 -0.1386372,0.140629 -0.205899,0.141586 -0.067227,9.57e-4 -0.1616943,-0.06005 -0.2098672,-0.135644 z M 3.6463806,36.754631 c -0.00165,-0.115489 0.1201976,-0.209654 0.2742202,-0.211852 0.1539775,-0.0023 0.2785168,0.08842 0.2801811,0.203892 0.00165,0.115503 -0.1201976,0.209651 -0.2742224,0.211856 -0.1540309,0.0023 -0.2785177,-0.08842 -0.2801697,-0.203926 z m 0.6929715,-0.0099 c -0.00165,-0.115486 0.12024,-0.209645 0.2742142,-0.21185 0.1539825,-0.0023 0.2785197,0.08842 0.2801791,0.203901 0.00165,0.115518 -0.1202536,0.20965 -0.2742194,0.211854 -0.1539743,0.0023 -0.2785177,-0.08842 -0.2801666,-0.203929 z M 11.760679,35.57087 c -0.05828,-0.631635 -0.118822,-2.115281 -0.134488,-3.296802 l -0.02836,-2.148226 0.288061,0.34244 c 0.274322,0.326107 0.286924,0.477041 0.263768,3.163939 -0.02578,2.997321 -0.207587,3.903796 -0.388874,1.938857 z M 2.0703655,35.910072 C 2.0289412,35.62519 1.9475793,35.253179 1.8896637,35.083385 1.7632566,34.712374 2.1183536,34.503048 2.4376325,34.760393 c 0.1779296,0.143387 0.179627,0.21562 0.012937,0.548563 -0.1052057,0.210865 -0.1562881,0.510192 -0.1133562,0.665138 0.043107,0.154983 0.017263,0.320457 -0.056984,0.367856 -0.075632,0.04829 -0.1681528,-0.141512 -0.2104269,-0.431878 z m 0.7377567,0.388379 c -0.00238,-0.174722 0.3998335,-0.493713 0.4999768,-0.396415 0.1439775,0.139892 -0.062559,0.511796 -0.2860219,0.514991 -0.1167564,0.0016 -0.2130286,-0.05173 -0.213993,-0.118574 z m 1.5915935,-0.178413 c 0.046008,-0.07688 0.1735363,-0.141115 0.2833871,-0.142693 0.1098592,-0.0015 0.2006622,0.05938 0.2017103,0.135754 0.00104,0.07625 -0.1264619,0.14045 -0.2833819,0.142694 -0.156955,0.0025 -0.2477178,-0.05882 -0.2017186,-0.13574 z m 9.6377823,-0.803067 c -0.146056,-0.332919 -0.185381,-0.835511 -0.147044,-1.880669 0.02877,-0.784496 -0.0067,-1.528235 -0.07867,-1.652744 -0.07204,-0.124535 -0.121286,-0.804864 -0.109501,-1.511889 l 0.02163,-1.285505 0.261633,0.37406 c 0.234057,0.334587 0.248152,0.487546 0.133525,1.449996 -0.08261,0.694193 -0.07972,1.1326 0.0084,1.235576 0.07703,0.09025 0.130576,0.935099 0.122978,1.942549 -0.01267,1.667592 -0.02629,1.753547 -0.212726,1.328632 z M 3.7255019,35.624402 C 3.518723,35.423471 3.6199245,35.001741 3.8645377,35.04523 c 0.1337855,0.02379 0.2449156,0.161874 0.2469899,0.30695 0.00381,0.275723 -0.2198999,0.433594 -0.3859927,0.272199 z m 0.5940096,-0.265538 c -0.00362,-0.25409 0.068961,-0.347551 0.2722235,-0.350462 0.2032826,-0.003 0.2785227,0.08843 0.2821572,0.342523 0.00362,0.254097 -0.068971,0.347549 -0.2722421,0.350464 -0.2032817,0.003 -0.2785157,-0.08842 -0.2821543,-0.34253 z m 6.7407105,-0.123185 c -0.04948,-0.0481 -0.09718,-0.903391 -0.106088,-1.900761 l -0.01624,-1.813397 0.284177,0.617059 c 0.244553,0.530993 0.27333,0.78722 0.206346,1.836803 -0.07375,1.154919 -0.162883,1.459916 -0.368156,1.260338 z M 3.6176096,34.745066 c -0.00104,-0.07621 0.087846,-0.139875 0.1977371,-0.141456 0.1098045,-0.0015 0.2391595,0.05889 0.2873622,0.134476 0.048198,0.07558 -0.040598,0.139243 -0.1977413,0.14147 -0.1569539,0.0025 -0.2862605,-0.05829 -0.287358,-0.134516 z m 0.6929696,-0.0099 c -0.00103,-0.07621 0.1227459,-0.14038 0.2752085,-0.142564 0.1524646,-0.0023 0.2780891,0.05843 0.2791774,0.134626 0.00114,0.07624 -0.1227728,0.14038 -0.2752095,0.142576 -0.1524636,0.0023 -0.2780861,-0.05841 -0.2791681,-0.134667 z m 2.898434,-0.88141 c -0.00619,-0.432137 -0.062736,-0.667511 -0.1474002,-0.613499 -0.080175,0.05114 -0.1399062,-0.089 -0.1434612,-0.336333 -0.00775,-0.535495 0.056262,-0.533911 0.3365056,0.0083 0.2482269,0.480268 0.3208662,1.637565 0.1029929,1.640686 -0.07621,9.83e-4 -0.143107,-0.313553 -0.1486248,-0.69916 z m -2.7305954,0.502199 c -0.2810576,-0.09619 -0.2050875,-0.451987 0.097417,-0.456322 0.1524647,-0.0023 0.2784816,0.08587 0.2800468,0.195784 0.00362,0.241028 -0.1418225,0.341304 -0.3774858,0.260571 z m 4.4638921,-0.272334 c -0.051212,-0.192549 -0.072937,-0.529477 -0.048047,-0.748708 l 0.045092,-0.398614 0.2716557,0.51867 c 0.251559,0.480251 0.2551108,0.535707 0.048047,0.748709 C 9.0520844,34.416651 9.02862,34.407773 8.9423288,34.083571 Z m -6.7523786,0.1862 c -0.057986,-0.05678 -0.1228823,-0.513737 -0.1441539,-1.015355 -0.03745,-0.877755 -0.040268,-0.884671 -0.079163,-0.183696 -0.061321,1.102822 -0.25626,0.876026 -0.3857802,-0.448675 -0.1391225,-1.423762 -0.036644,-6.303079 0.132465,-6.3055 0.066112,-9.54e-4 0.1410274,0.949276 0.1665016,2.111601 0.025452,1.162316 0.072017,1.98819 0.1037054,1.835252 0.1337029,-0.648059 0.2244606,-0.668205 0.3337787,-0.07409 0.2316469,1.258773 0.1355346,4.338074 -0.1273428,4.080478 z m 1.4187491,-0.148242 c -0.00207,-0.142722 0.087815,-0.212029 0.23994,-0.18499 0.2929274,0.05209 0.2780541,0.298328 -0.022344,0.365327 -0.1252093,0.02799 -0.2159247,-0.04724 -0.2178586,-0.180332 z m 1.963407,-0.520553 c -0.00981,-0.22736 0.041063,-0.378166 0.1127913,-0.335224 0.1630986,0.09759 0.1781867,0.57411 0.021404,0.674162 -0.06417,0.04093 -0.1245754,-0.11158 -0.1342533,-0.338955 z m 2.4251712,0.298066 c -0.05271,-0.05122 -0.1024973,-0.558115 -0.1106438,-1.126441 -0.012937,-0.902793 0.011843,-1.011896 0.1955627,-0.863761 0.1419579,0.11443 0.2132817,0.423219 0.2194013,0.949526 0.00877,0.774906 -0.1209143,1.218963 -0.3043005,1.040684 z M 3.5921252,32.965174 c -0.00454,-0.312734 0.066917,-0.584438 0.164323,-0.625372 0.1377824,-0.05787 0.1375717,-0.07404 -0.00114,-0.08086 -0.2016443,-0.0098 -0.238446,-0.675457 -0.054022,-0.976511 0.1975906,-0.322516 0.2490221,-0.156321 0.3180826,1.02705 0.056427,0.963501 0.033547,1.110658 -0.1774411,1.156331 -0.198051,0.04287 -0.2432823,-0.04778 -0.2497622,-0.500655 z m 0.6940083,-0.690132 c -0.01461,-1.723286 0.099234,-3.125077 0.2428144,-2.985532 0.066959,0.06509 0.1678697,0.793698 0.22409,1.619065 0.0797,1.169256 0.061878,1.527166 -0.081104,1.6206 -0.1371319,0.08971 -0.1397298,0.119827 -0.010011,0.119566 0.099586,-3.26e-4 0.1757984,0.176335 0.1792243,0.415441 0.00464,0.322416 -0.055838,0.416673 -0.2693387,0.419731 -0.2541835,0.0037 -0.2760996,-0.08892 -0.285674,-1.208844 z m 5.9740465,0.529241 c -0.197753,-0.477336 -0.205154,-0.646492 -0.02837,-0.649024 0.163522,-0.0025 0.342456,0.60376 0.252908,0.856815 -0.0375,0.106075 -0.129807,0.02061 -0.224423,-0.207799 z m 2.11738,-0.04279 c -0.04282,-0.106515 -0.06052,-0.402528 -0.03961,-0.657891 l 0.03779,-0.464255 0.242036,0.454167 c 0.23687,0.444559 0.220419,0.856119 -0.03441,0.859764 -0.07046,0.0011 -0.162996,-0.08533 -0.205614,-0.19181 z m -3.3795747,-0.16363 c -0.1858232,-0.335551 -0.2060752,-1.253762 -0.027716,-1.256315 0.2169148,-0.0033 0.4277818,0.493088 0.4353889,1.024324 0.00776,0.542094 -0.1775612,0.647554 -0.4076681,0.231987 z M 5.4660195,32.29182 c -0.110713,-0.415626 0.022477,-1.067373 0.1967749,-0.963076 0.068713,0.04122 0.1283886,0.316864 0.1326012,0.612756 0.00899,0.629082 -0.1968553,0.848032 -0.329374,0.350301 z M 6.995367,31.958989 c -0.1144712,-0.179385 -0.123516,-2.250835 -0.01001,-2.252456 0.059762,-8.76e-4 0.1845603,0.07224 0.2773562,0.162382 0.2140311,0.207999 0.2373524,1.21648 0.028291,1.219468 -0.109791,0.0015 -0.1055091,0.06075 0.01461,0.201066 0.093494,0.109364 0.1311567,0.32714 0.083881,0.483973 C 7.3026712,32.0612 7.116679,32.148815 6.9956038,31.958964 Z M 9.6184093,31.66751 C 9.5057976,31.386097 9.490212,30.312132 9.5946343,30.027865 c 0.1313073,-0.35742 0.3294111,-0.109046 0.3521738,0.441526 0.018,0.436278 0.03457,0.460862 0.1116899,0.167464 l 0.09058,-0.343853 0.242062,0.335275 c 0.298323,0.41321 0.312853,0.739186 0.0432,0.969568 -0.112985,0.09652 -0.206174,0.124176 -0.20706,0.06152 -8.75e-4,-0.06268 -0.07538,-0.03813 -0.165585,0.05476 -0.2203327,0.226731 -0.3388727,0.214258 -0.4432902,-0.04659 z M 7.9484013,31.554279 C 7.8218702,31.431326 7.7241689,31.104874 7.719663,30.790261 c -0.00733,-0.506408 0.014011,-0.538068 0.2714388,-0.404973 0.215264,0.111277 0.28135,0.286198 0.288181,0.763168 0.00981,0.686425 -0.013216,0.71458 -0.3308453,0.405817 z m 3.2298257,-0.174964 c -0.140642,-0.253151 -0.269472,-0.934243 -0.333405,-1.762647 -0.09956,-1.290305 -0.03758,-1.55951 0.272221,-1.182182 0.194171,0.236469 0.308746,1.069892 0.147414,1.072203 -0.07235,9.84e-4 -0.05732,0.08876 0.03345,0.194958 0.100846,0.118037 0.154229,0.561719 0.137297,1.141656 l -0.02775,0.948569 z m 1.346673,-0.03069 c -0.136871,-0.341888 -0.11125,-0.888112 0.04171,-0.890301 0.07624,-9.83e-4 0.142177,0.247492 0.146543,0.552396 0.0086,0.590815 -0.04712,0.690564 -0.188244,0.337927 z M 6.1440105,30.891421 c -0.049302,-0.12313 -0.094011,-0.535151 -0.099482,-0.91564 -0.00836,-0.584555 0.027951,-0.684969 0.2333308,-0.647767 0.1987646,0.0358 0.245368,0.193439 0.254929,0.861571 0.011565,0.797332 -0.1986891,1.176658 -0.388727,0.701836 z m 2.8524801,0.0063 c -0.1860124,-0.180746 -0.2560095,-1.63205 -0.078848,-1.634585 0.2801217,-0.0039 0.4491414,0.386744 0.4587906,1.060823 0.010738,0.743393 -0.073962,0.871134 -0.3799393,0.573786 z m 3.8532834,-0.0276 c -9.83e-4,-0.07624 0.06046,-0.139494 0.136608,-0.140585 0.07624,-9.83e-4 0.139479,0.06046 0.140585,0.136622 9.83e-4,0.07624 -0.06046,0.139478 -0.136623,0.140583 -0.07621,0.0011 -0.139479,-0.06046 -0.140586,-0.136622 z m -1.014156,-0.638957 c -0.252633,-0.272885 -0.362084,-1.282299 -0.139361,-1.28549 0.26947,-0.0039 0.453443,0.420628 0.420527,0.970233 -0.03367,0.564923 -0.04178,0.573852 -0.281178,0.31527 z m -8.1861141,0.125471 c -0.052792,-0.05133 -0.098667,-0.275262 -0.1018469,-0.497583 -0.00671,-0.480655 0.3152721,-0.463268 0.3932493,0.02102 0.053844,0.33446 -0.1293261,0.633873 -0.2913994,0.476366 z m 1.4775485,-0.14079 c -0.046081,-0.114663 -0.00981,-0.299499 0.079534,-0.410661 0.1125983,-0.139732 0.1293115,-0.478408 0.054156,-1.096996 -0.059802,-0.492159 -0.061951,-0.973096 -0.00527,-1.068741 0.057242,-0.09566 0.084087,-0.568837 0.05969,-1.05151 -0.024192,-0.48268 0.013629,-0.878415 0.08447,-0.87943 0.1774401,-0.0026 0.3250819,1.497576 0.2798982,2.8444 -0.020568,0.613889 0.016138,1.200308 0.081858,1.303158 0.065616,0.102879 0.088424,0.271053 0.050706,0.373827 -0.093348,0.254004 -0.5822162,0.244048 -0.6855076,-0.01416 z m 5.1089216,-0.277408 c -0.100195,-0.155444 -0.182386,-0.730072 -0.191057,-1.335654 -0.01509,-1.054028 -0.0128,-1.060771 0.265544,-0.815938 0.235343,0.206918 0.283309,0.422889 0.296355,1.334153 0.01597,1.11653 -0.06412,1.293187 -0.370818,0.817428 z m 2.627637,-0.07893 c -0.08608,-0.167687 -0.205046,-0.927995 -0.264339,-1.689572 -0.159809,-2.050791 -0.591549,-3.729453 -1.162675,-4.5205 -0.314813,-0.436072 -0.273623,-0.606679 0.07295,-0.302488 0.162884,0.142917 0.482366,0.615715 0.709995,1.050682 0.642094,1.226942 1.149428,3.871631 0.693191,3.613543 -0.09611,-0.05434 -0.06376,0.0245 0.0718,0.174996 0.172026,0.191019 0.249882,0.508862 0.25765,1.051623 0.01225,0.852631 -0.135591,1.095375 -0.378677,0.621749 z m 1.75903,0.0099 c -0.174191,-0.259299 -0.250377,-0.828979 -0.324365,-2.425125 -0.105163,-2.268824 -0.28029,-2.859258 -1.25623,-4.235124 -0.366899,-0.517275 -0.878153,-1.517026 -0.881104,-1.723031 -0.0035,-0.236365 1.778571,2.098571 2.141228,2.805731 0.499873,0.974708 0.694426,2.486769 0.601204,4.672535 -0.05126,1.20282 -0.06058,1.232812 -0.280806,0.905035 z m -6.7487952,0.07308 c -0.1817703,-0.176642 -0.2558882,-1.496346 -0.083747,-1.49151 0.057242,0.0022 0.221968,0.08965 0.366152,0.195587 0.2176522,0.159973 0.2476011,0.300013 0.1766161,0.824789 -0.089075,0.657982 -0.175472,0.746663 -0.459016,0.471108 z M 6.9614966,29.474977 C 6.86094,29.377257 6.8098167,28.044723 6.9067626,28.043338 c 0.3630628,-0.0052 0.4996618,0.220252 0.508525,0.839281 0.00909,0.641833 -0.1665089,0.871315 -0.4535861,0.592352 z m 2.7718602,-0.03969 C 9.581513,29.28774 9.5979603,27.450315 9.7511108,27.448124 c 0.080082,-0.0011 0.1448915,0.436905 0.1534898,1.037465 0.014938,1.043775 0.00209,1.117665 -0.1712259,0.949695 z m -3.4575206,-0.24668 c -0.3328112,-0.06029 -0.3810243,-1.408015 -0.050418,-1.412752 0.2788399,-0.0039 0.3731029,0.258628 0.3294495,0.917885 -0.028084,0.426998 -0.086163,0.529803 -0.2789101,0.494876 z m 7.5505088,-0.304746 c -0.247299,-0.256852 -0.31938,-0.493818 -0.329224,-1.082211 -0.02512,-1.51063 -0.525763,-3.242064 -1.349698,-4.669301 -0.728213,-1.26141 -1.00083,-1.803327 -0.907878,-1.804662 0.129423,-0.0019 1.803122,2.241208 2.11343,2.832408 0.394882,0.752351 0.888248,3.437268 0.824424,4.486524 l -0.03452,0.566383 z M 3.5336934,27.918526 c -0.00258,-1.203325 0.1344741,-2.006959 0.2786198,-1.63279 0.1281687,0.332597 0.275128,2.321594 0.1889185,2.556276 -0.043159,0.118092 -0.165691,0.215825 -0.2719199,0.21735 -0.1505339,0.0023 -0.1936402,-0.249154 -0.1956267,-1.140832 z m 5.4226426,0.94066 C 8.8094392,28.769116 8.7839666,28.55508 8.8495202,27.961802 8.9504584,27.047477 9.1881784,26.917226 9.20313,27.768086 9.2088,28.092042 9.253098,28.49686 9.301504,28.667711 9.393897,28.993846 9.279481,29.057375 8.95639,28.859214 Z m 2.750998,-0.261716 c -0.111511,-0.130579 -0.153707,-0.438337 -0.114526,-0.836942 0.111745,-1.137791 0.354253,-1.038649 0.484263,0.197987 0.09007,0.856784 -0.02052,1.047754 -0.36977,0.638917 z M 1.9989426,28.191316 c -0.00486,-0.338502 0.053018,-0.654926 0.1285827,-0.703122 0.084697,-0.05395 0.141234,0.181354 0.1474136,0.613507 0.00568,0.385624 -0.052318,0.702031 -0.1285962,0.703122 -0.07621,9.83e-4 -0.1425607,-0.274982 -0.1473981,-0.613507 z m 5.9275601,0.103788 C 7.7336019,28.186429 7.6792329,27.968519 7.6691371,27.263339 c -0.012803,-0.886412 0.036344,-0.973064 0.4621455,-0.816624 0.1715321,0.06303 0.2234592,0.293023 0.2341013,1.036311 0.014011,0.982672 -0.021011,1.047538 -0.4388987,0.812083 z M 4.5428847,28.144856 C 4.4326538,27.869581 4.5522847,26.249548 4.7324455,25.5795 4.87576,25.046299 5.3852906,24.11686 5.482548,24.211369 c 0.03333,0.03238 -0.051212,0.399505 -0.1883878,0.815407 -0.1371865,0.415854 -0.2851764,1.302291 -0.3289817,1.969755 -0.077345,1.177678 -0.2368518,1.611535 -0.4222907,1.148321 z m 6.4346743,-0.195645 c -0.155453,-0.120088 -0.247218,-0.527883 -0.318388,-1.414886 -0.09199,-1.146747 -0.08338,-1.216811 0.108605,-0.87821 0.193223,0.340819 0.579685,2.305927 0.474735,2.413941 -0.0254,0.02613 -0.144803,-0.02812 -0.264932,-0.120845 z M 7.0895434,27.929881 C 6.9031846,27.895691 6.8443232,27.746609 6.837806,27.291345 6.825695,26.446464 6.9678476,25.408914 7.0959017,25.40708 c 0.1318454,-0.0019 0.3339707,1.562929 0.2774294,2.147696 -0.030192,0.312877 -0.1023528,0.40819 -0.2837856,0.375108 z M 6.2677022,27.667918 C 6.0692886,27.630718 6.045927,27.470736 6.0955197,26.48814 c 0.081083,-1.605372 0.2422671,-1.75779 0.3790222,-0.358343 0.1344195,1.375504 0.104738,1.596303 -0.2068397,1.538121 z m 3.7928508,-0.397267 c -0.1479252,-0.18055 -0.4116334,-2.177404 -0.2878308,-2.179176 0.09903,-0.0013 0.6629498,1.759326 0.6676028,2.084373 0.0045,0.300877 -0.174406,0.345466 -0.379774,0.09479 z M 2.0652742,26.79045 C 1.937215,26.470451 2.1830495,25.616139 2.524314,25.195232 c 0.2332349,-0.28765 0.2681502,-0.30059 0.194524,-0.07212 -0.049519,0.153131 -0.1339373,0.579212 -0.1879201,0.946721 -0.1110848,0.756084 -0.3214825,1.081284 -0.4656447,0.720564 z m 6.796847,-0.114539 c -0.1387562,-0.134804 -0.1282799,-1.124759 0.012798,-1.21477 0.096314,-0.06147 0.4445695,0.886549 0.4493891,1.223329 0.00159,0.108111 -0.3487972,0.101631 -0.4621971,-0.0087 z M 11.533079,26.3591 c -0.0048,-0.138978 -0.125939,-0.578446 -0.269911,-0.976648 -0.303949,-0.840677 -0.194987,-0.92277 0.332979,-0.250785 0.448305,0.570651 0.549998,1.346721 0.186919,1.426753 -0.158986,0.03514 -0.244628,-0.03333 -0.249981,-0.19933 z M 7.8810774,26.26789 C 7.6490682,26.21177 7.6301991,26.113966 7.7050892,25.354613 c 0.1082483,-1.097472 0.2807333,-1.445368 0.391117,-0.789107 0.1842516,1.095373 0.2416591,1.793586 0.1463077,1.779853 -0.055848,-0.0083 -0.2184678,-0.04282 -0.3614136,-0.07744 z M 3.7222969,25.68272 c -0.130592,-0.326294 0.4976319,-1.940788 1.1669405,-2.99891 0.354493,-0.560398 0.6734871,-0.990754 0.7089021,-0.956331 0.035601,0.03456 -0.2036854,0.691611 -0.5315663,1.460396 -0.3277675,0.768802 -0.6376715,1.607363 -0.6886588,1.86347 C 4.2352658,25.767881 3.8896173,26.10076 3.7222969,25.68272 Z M 1.826344,25.523157 c -0.00464,-0.168418 0.3933358,-0.855289 0.8846056,-1.526417 1.0520726,-1.437264 1.8866819,-2.832939 2.0999449,-3.511638 0.1469419,-0.467397 0.09306,-1.429953 -0.1161646,-2.078304 -0.147839,-0.458177 0.1613793,-0.39104 0.4194947,0.09108 0.6773651,1.265165 -0.1430471,3.450074 -2.2005302,5.860498 -0.4282452,0.501697 -0.8461559,1.037913 -0.9286876,1.191577 -0.1463811,0.272504 -0.1502747,0.271844 -0.158636,-0.02663 z M 9.9798761,23.577219 C 9.8976941,23.428823 9.8292077,23.222865 9.8277268,23.119651 9.8264331,23.016442 9.7010721,22.697147 9.5495189,22.410109 9.3263295,21.987384 9.3141017,21.902999 9.4851704,21.965846 c 0.1162064,0.04258 0.2359775,0.07739 0.2663962,0.07666 0.1168393,-0.0016 0.6310694,1.102789 0.6348014,1.36343 0.0057,0.39042 -0.230092,0.489672 -0.4064519,0.171138 z M 8.8005941,22.55345 c -0.2857894,-0.422799 -0.3060927,-0.770032 -0.045301,-0.773766 0.2348151,-0.0035 0.5644062,0.825246 0.3968386,0.99769 -0.066399,0.06834 -0.2203093,-0.02974 -0.3515947,-0.223908 z M 5.9970305,22.408324 c 0.047051,-0.210318 0.1163019,-0.492035 0.154095,-0.625999 0.051099,-0.181852 -0.012803,-0.243788 -0.252671,-0.244525 -0.2993857,-4.92e-4 -0.2931782,-0.01678 0.091243,-0.235014 0.5564087,-0.315699 2.6315527,-0.446 3.4891444,-0.219057 0.8837221,0.23385 0.4923212,0.37888 -1.1188591,0.414657 -0.9575122,0.02123 -1.294028,0.0812 -1.4923486,0.265914 -0.2423364,0.225716 -0.2518315,0.223986 -0.1768515,-0.03216 0.04353,-0.148874 -0.077242,0.02775 -0.2682989,0.392836 -0.3904078,0.745371 -0.5527516,0.853511 -0.4253688,0.28334 z m 1.2591302,-0.04646 c -0.1353972,-0.212228 0.050624,-0.724543 0.2410788,-0.664064 0.2103793,0.06707 0.2199941,0.681338 0.011843,0.754093 -0.087928,0.0306 -0.2016462,-0.0098 -0.2528153,-0.09004 z m 0.6836738,-0.164955 c -0.1085373,-0.325726 -0.022436,-0.476072 0.1970858,-0.34463 0.1833821,0.109763 0.2060209,0.626543 0.027805,0.629098 -0.071068,9.84e-4 -0.1721734,-0.127 -0.2246754,-0.28448 z m 2.9139225,-0.03163 c -0.04818,-0.07553 -0.02142,-0.138298 0.05908,-0.139493 0.08071,-0.0011 0.147671,0.06025 0.148749,0.136483 9.83e-4,0.07624 -0.02556,0.139008 -0.0591,0.13951 -0.03379,6.09e-4 -0.10054,-0.06095 -0.14874,-0.136498 z m -0.608214,-0.622432 c 0.05836,-0.301948 0.304069,-0.323855 0.364533,-0.0328 0.03155,0.151267 -0.03515,0.243095 -0.178035,0.245144 -0.13318,0.0019 -0.210816,-0.08661 -0.186507,-0.212552 z M 5.8211413,20.67795 c -0.036334,-0.05664 -0.046949,-0.107091 -0.023386,-0.112019 1.157869,-0.244243 2.9503796,-0.393517 3.8180922,-0.317964 1.3234635,0.115241 1.8592195,0.236859 1.7616595,0.399855 -0.08934,0.14932 -5.4609417,0.178471 -5.5562641,0.03014 z m 3.1303989,-0.665638 c -1.8140294,-0.01713 -2.4657335,-0.120171 -1.7498,-0.27695 0.3764451,-0.08249 0.4017395,-0.13124 0.4046843,-0.781096 0.00381,-0.883477 0.2771093,-0.919843 0.2897709,-0.03838 0.00733,0.511078 0.059049,0.657794 0.2309159,0.65515 0.1764582,-0.0027 0.243367,-0.250126 0.3291189,-1.2179 0.082549,-0.931384 0.1561143,-1.215177 0.3154907,-1.217461 0.1647353,-0.0025 0.2196465,0.234257 0.2645132,1.139841 0.050635,1.024724 0.084391,1.14242 0.3254144,1.138971 0.1478332,-0.0022 0.536568,0.09525 0.8638695,0.216404 0.634303,0.234743 1.001033,0.470728 0.660417,0.424907 -0.110741,-0.01487 -0.9812428,-0.03441 -1.9343988,-0.04329 z M 11.257871,19.29601 c -0.175205,-0.274608 -0.263268,-1.2266 -0.15164,-1.639425 0.118161,-0.437166 0.668547,-0.628 0.625453,-0.216882 -0.07393,0.705669 -0.397951,1.97514 -0.473776,1.856305 z M 9.3384737,18.837617 c -0.2273711,-0.410622 0.049809,-1.780153 0.3611832,-1.784611 0.1725864,-0.0026 0.2002873,0.101795 0.1376416,0.517863 -0.043121,0.286538 -0.075823,0.754842 -0.072529,1.040702 0.00667,0.579902 -0.1765721,0.677023 -0.426282,0.226035 z m 0.7980423,-0.312399 c -0.04331,-0.107549 -0.04736,-0.453252 -0.0099,-0.768139 0.05733,-0.479331 0.11944,-0.573271 0.381798,-0.57703 0.30549,-0.0044 0.309603,0.01322 0.164561,0.714103 -0.148684,0.717929 -0.388706,1.000274 -0.536491,0.631066 z M 5.0416256,18.020886 c -0.00165,-0.11436 0.090604,-0.209227 0.2049256,-0.210871 0.1143608,-0.0016 0.2092258,0.0906 0.2108583,0.204909 0.00165,0.114362 -0.090582,0.209226 -0.2049111,0.210864 -0.1143476,0.0016 -0.2092476,-0.09059 -0.21088,-0.204913 z M 4.4757881,17.227722 C 4.4732068,17.041198 4.5308932,16.551739 4.6041363,16.140015 4.7233294,15.470368 4.939151,13.322244 5.3279037,8.937069 5.3989818,8.1355107 5.4918002,7.1361095 5.5341702,6.7161678 l 0.077108,-0.7635231 0.1090744,0.6222375 c 0.059999,0.342239 0.060422,1.4893883 5.185e-4,2.5492447 -0.082467,1.4631801 -0.068672,1.9509321 0.057449,2.0264061 0.1232953,0.07376 0.1068711,0.19269 -0.063685,0.461268 -0.1490068,0.23469 -0.2717538,0.888086 -0.3490486,1.85917 -0.154257,1.936115 -0.5181923,3.967807 -0.7235866,4.039547 -0.0937,0.03288 -0.163275,-0.08566 -0.1661,-0.282823 z m 0.6931388,-0.34076 c -0.00238,-0.368478 0.083994,-0.827155 0.1924424,-1.019302 0.1846946,-0.327399 0.1958663,-0.289028 0.1770509,0.610213 -0.012937,0.618997 -0.081166,0.980783 -0.1924062,1.019316 -0.1224145,0.04217 -0.1737892,-0.134529 -0.1770706,-0.610216 z m 2.6983603,-0.08711 c 0.046762,-0.07817 0.1436089,-0.107036 0.2152,-0.06423 0.1939211,0.116067 0.1593082,0.199758 -0.084211,0.203237 -0.1188348,0.0016 -0.1778159,-0.06076 -0.1310462,-0.13902 z m 0.6127859,-2.292391 c 0.00959,-2.036524 -0.021848,-2.4367 -0.1937506,-2.499871 -0.1805675,-0.06628 -0.1809476,-0.09098 -0.0029,-0.207147 0.329129,-0.214786 0.9639623,-0.174908 0.9673379,0.0608 0.00169,0.114348 -0.090601,0.209238 -0.2049288,0.210876 -0.1673447,0.0026 -0.2048073,0.217673 -0.1921416,1.103535 0.00866,0.605315 0.078689,1.138218 0.1555697,1.184239 0.077614,0.0465 0.1387273,-0.05868 0.1373659,-0.23639 -0.00129,-0.176022 0.048077,-0.402261 0.1098044,-0.502784 0.1565181,-0.254792 0.4806885,1.623308 0.3769399,2.183733 -0.063453,0.342806 -0.1393593,0.426974 -0.3403153,0.377471 -0.2083014,-0.05124 -0.2574912,0.01482 -0.2528467,0.339121 0.00458,0.315714 -0.056656,0.403715 -0.2828933,0.406956 -0.2831904,0.0041 -0.2884221,-0.04147 -0.2772483,-2.420542 z m 1.1889939,2.271121 c -0.1045597,-0.163926 0.021605,-0.418443 0.2086896,-0.421136 0.1686344,-0.0026 0.1751184,0.37272 0.00836,0.479135 -0.07032,0.045 -0.1679488,0.01891 -0.2169087,-0.05817 z m 0.720241,0.03851 c -0.04887,-0.04745 -0.02954,-0.201162 0.0432,-0.341539 0.07258,-0.140423 0.123033,-0.304472 0.112101,-0.364613 -0.05236,-0.288139 0.0268,-0.456516 0.215902,-0.459215 0.251077,-0.0037 0.283518,0.360098 0.0413,0.462478 -0.136511,0.05765 -0.134901,0.0983 0.0074,0.195791 0.09889,0.06765 0.141277,0.227779 0.09421,0.355743 -0.08595,0.234178 -0.349256,0.311623 -0.514206,0.151321 z m 0.896562,-0.167888 c 0.02341,-0.133759 0.182142,-0.265154 0.352562,-0.29194 0.235261,-0.03713 0.310775,0.02043 0.313891,0.238099 0.0033,0.215714 -0.08424,0.288117 -0.352513,0.291939 -0.26489,0.0039 -0.345658,-0.05746 -0.313891,-0.2381 z M 7.7066874,15.937988 c -0.2127106,-0.900968 -0.092183,-3.013701 0.1721548,-3.017487 0.1732376,-0.0026 0.3499095,1.943274 0.2501318,2.75467 -0.0997,0.810777 -0.2681636,0.915625 -0.4222907,0.262818 z m 3.6804616,-0.08735 c -0.0016,-0.115504 0.120198,-0.20966 0.274221,-0.211862 0.15398,-0.0023 0.278512,0.08843 0.280169,0.203927 0.0016,0.115503 -0.120198,0.20966 -0.274214,0.21186 -0.15398,0.0023 -0.278515,-0.08843 -0.28018,-0.203916 z m -0.848305,-1.157955 c -0.01211,-0.847288 0.164167,-1.217021 0.319339,-0.669644 0.177599,0.626573 0.120019,1.486901 -0.09961,1.490046 -0.161484,0.0025 -0.210519,-0.180871 -0.219674,-0.820404 z m 0.800694,0.724459 c -0.05417,-0.05268 -0.108387,-0.911787 -0.120322,-1.909116 -0.01225,-1.054861 0.02825,-1.727063 0.09776,-1.607095 0.222316,0.383547 0.459153,1.582466 0.504278,2.552497 0.03597,0.776586 0.0033,0.974158 -0.169132,1.01222 -0.117693,0.02611 -0.258352,0.0042 -0.312607,-0.04848 z M 5.4175659,15.231471 c -0.00362,-0.244757 0.2954467,-0.206391 0.3848136,0.04937 0.031471,0.0901 -0.04163,0.165206 -0.1621889,0.166949 -0.1206808,0.0016 -0.2208653,-0.0956 -0.2225897,-0.216296 z m 4.5310492,-0.168617 c -0.1917999,-0.478619 -0.1334564,-1.33831 0.09114,-1.341526 0.223401,-0.0034 0.272391,0.597306 0.1016,1.246139 -0.08059,0.305741 -0.103624,0.317375 -0.1927558,0.09541 z M 5.5433266,14.333959 c -0.00445,-0.308294 0.091811,-0.980259 0.2138391,-1.493241 0.2217286,-0.932166 0.2219538,-0.932425 0.3420916,-0.449252 0.1162194,0.467399 0.06128,1.889858 -0.088455,2.297883 -0.1605018,0.436878 -0.4594012,0.209673 -0.467492,-0.355376 z m 4.2210131,-1.521128 c -0.048047,-0.119896 -0.090681,-0.454594 -0.094821,-0.743738 -0.00657,-0.477923 -0.047192,-0.53302 -0.4418795,-0.606126 -0.2388774,-0.04427 -0.825264,-0.07484 -1.3030501,-0.06798 -0.6599787,0.0096 -0.8879395,0.0648 -0.9487534,0.230274 C 6.7221572,12.315714 6.4869883,11.072751 6.677052,10.046179 6.7900911,9.4354538 7.000967,9.6437475 7.0114573,10.376536 l 0.00877,0.615489 1.2473266,-0.01785 c 1.0163624,-0.01453 1.2467907,-0.05651 1.2443664,-0.225753 -0.00169,-0.114333 0.059303,-0.208811 0.1356035,-0.209881 0.076231,-0.0011 0.1398319,0.08428 0.1413506,0.189742 0.00159,0.105468 0.1279773,0.222543 0.2809786,0.260254 0.20406,0.05035 0.277258,2.26e-4 0.274568,-0.187521 -0.0021,-0.140825 0.0517,-0.291362 0.119359,-0.334483 0.138329,-0.08827 0.29504,0.228028 0.300464,0.606449 0.0023,0.147707 0.09685,0.241212 0.230928,0.227959 0.12503,-0.01198 0.258215,0.06162 0.296001,0.164325 0.04938,0.13442 -0.01184,0.162516 -0.218361,0.100268 -0.259221,-0.07822 -0.290185,-0.02205 -0.320019,0.579177 -0.04167,0.840261 -0.284301,0.869495 -0.390904,0.04692 l -0.08074,-0.622664 -0.09585,0.729136 c -0.09573,0.728792 -0.2565972,0.925349 -0.4210051,0.514521 z m 1.3840973,-2.01849 c -0.184502,-0.420035 -0.273495,-1.3822995 -0.128004,-1.3843832 0.07951,-0.00111 0.178956,0.083852 0.220994,0.1889147 0.108496,0.2711184 0.01719,1.4461405 -0.09298,1.1954685 z M 8.0783428,10.744692 C 8.0274293,10.695251 7.9800577,10.524914 7.9729162,10.366176 7.9610725,10.102641 7.9488895,10.10687 7.8307819,10.41487 7.5620152,11.116246 7.4204755,10.481278 7.4328491,8.6298756 7.4414276,7.3302378 7.4950579,6.7634257 7.6130429,6.7223595 7.7365591,6.6792632 7.7984766,7.0778221 7.8476252,8.2324911 l 0.066876,1.5685413 0.00753,-1.5595966 c 0.00671,-1.4573052 0.025472,-1.5598676 0.2845063,-1.5635763 0.2638632,-0.00381 0.2785032,0.088465 0.3047289,1.9193649 0.020609,1.4399246 -0.018627,1.9628026 -0.1562353,2.0803586 -0.1010931,0.08636 -0.2254167,0.116577 -0.2762915,0.06715 z m 0.9402418,-0.57831 C 8.9694883,9.8811719 8.8907595,9.4924347 8.8435451,9.3025035 8.7963486,9.1125639 8.7225758,8.4430471 8.6796765,7.8146651 8.6064202,6.7434271 8.6188928,6.6719093 8.8791517,6.6681828 c 0.2644018,-0.00381 0.2794221,0.091336 0.31765,2.0054673 0.022252,1.1051843 0.011146,2.0098529 -0.024452,2.0103629 -0.035558,5.66e-4 -0.1046832,-0.23243 -0.1537227,-0.517631 z M 9.4058396,9.5513594 C 9.4481646,9.0821223 9.4766169,8.2707809 9.4691231,7.7483749 9.4586638,7.0182444 9.5012277,6.7978992 9.6532019,6.7957258 9.8122776,6.7934567 9.8572738,7.1020893 9.8834918,8.3759359 9.9188805,10.09182 9.8673798,10.396816 9.5418082,10.40148 9.3638618,10.403968 9.3415936,10.264692 9.4058455,9.5513604 Z m 0.8736024,0.5989716 c -0.04622,-0.04493 -0.08666,-0.2629491 -0.08981,-0.4845005 -0.0078,-0.5292991 0.458001,-0.4906314 0.527954,0.04385 0.04494,0.3431205 -0.241812,0.6314675 -0.438146,0.4406795 z M 6.7745492,9.0108873 C 6.7344573,8.9110126 6.7104098,8.1783867 6.7210552,7.3828517 6.7474763,5.3786947 7.000911,5.5041397 7.0796689,7.5603826 7.1209281,8.6422091 7.0928849,9.1889913 6.9947032,9.1903955 6.9136298,9.19153 6.8146746,9.110768 6.7746917,9.0108749 Z m 3.4813328,-0.040506 c -0.169099,-0.5191167 -0.176163,-0.933172 -0.01634,-0.9354601 0.205813,-0.00299 0.346508,0.3033011 0.353173,0.7687008 0.0049,0.3480955 -0.238918,0.4686963 -0.337287,0.1667783 z m 0.531034,-0.034268 c -0.119949,-0.2996612 -0.01461,-0.6385879 0.163317,-0.5265574 0.08577,0.053949 0.201789,0.2377893 0.257775,0.4085425 0.07636,0.2328786 0.04623,0.3112461 -0.119797,0.3136221 -0.121823,0.00175 -0.257367,-0.086287 -0.301115,-0.1955369 z M 10.673161,7.9361649 c -0.05156,-0.050088 -0.09537,-0.205415 -0.09738,-0.3451694 -0.0055,-0.3822056 0.369262,-0.3107516 0.451026,0.085947 0.06778,0.3288898 -0.131528,0.4750428 -0.353651,0.259214 z M 10.128542,7.8184463 c -0.05802,-0.057222 -0.107724,-0.2620698 -0.110478,-0.4551628 -0.0036,-0.2523672 0.03779,-0.3094238 0.147459,-0.2029358 0.08388,0.081516 0.133594,0.286312 0.110479,0.4551698 -0.02291,0.1688444 -0.08947,0.2601835 -0.147458,0.202937 z m 0.380102,-1.1158014 c -0.11052,-0.276116 -0.117473,-0.8651478 -0.01508,-1.2706994 0.148637,-0.588145 0.292792,-0.3170087 0.310899,0.5846933 0.01674,0.8605955 -0.108978,1.1532111 -0.295966,0.686001 z M 9.3581136,6.3095052 C 9.3114794,6.1930493 9.2967507,5.7566039 9.3254319,5.3396142 9.3541329,4.9226255 9.3254239,4.5821995 9.2620488,4.583106 9.198596,4.5840116 9.1522454,4.9849003 9.1594167,5.4740605 l 0.012798,0.8893159 -0.6314004,0.00909 -0.6313441,0.00909 0.035064,-0.4980736 c 0.04032,-0.5705849 0.3264378,-0.7663872 0.4244727,-0.2904895 0.044398,0.2146321 0.069549,0.154574 0.077407,-0.1837198 0.025225,-1.0932864 0.1405096,-1.3709027 0.5709774,-1.3770636 0.3300599,-0.00475 0.3976357,-0.063788 0.3936231,-0.3440058 -0.00259,-0.1860718 0.064727,-0.3826794 0.1497241,-0.4369348 0.1071054,-0.068342 0.138993,0.054166 0.1037337,0.398386 -0.044564,0.435702 -0.00836,0.5070578 0.2945927,0.5784642 0.3012379,0.071026 0.8534889,0.5334125 0.8561129,0.7167637 5.41e-4,0.035364 -0.124287,0.033422 -0.277309,-0.00423 -0.233542,-0.057567 -0.27878,0.00185 -0.281702,0.3690702 -0.0017,0.2406668 -0.04923,0.559659 -0.105164,0.7088631 -0.09421,0.251235 -0.108786,0.2463296 -0.1972549,-0.066504 C 9.9011624,5.7663157 9.8544685,5.4116474 9.8499046,5.1639242 9.8452272,4.9162013 9.7878351,4.7142938 9.7221491,4.7152354 9.6564771,4.7161719 9.6242631,4.8569826 9.6505259,5.0281616 9.8370498,6.2447688 9.8354565,6.5156934 9.6419674,6.5184627 9.5324805,6.5200152 9.4047559,6.4260114 9.3581665,6.3096156 Z M 5.266398,5.0436811 C 5.1130279,4.687972 5.1146954,4.5967609 5.2760004,4.4911754 5.6329105,4.2580128 6.0565899,4.3365683 6.1439517,4.6521015 6.2623321,5.0796497 6.099027,5.2730121 5.8729836,4.9729861 5.696003,4.7380755 5.6829335,4.74654 5.6879019,5.093252 5.6952364,5.5921922 5.4922287,5.5683556 5.2660315,5.043681 Z M 6.3778101,4.8439668 C 6.3762613,4.7358597 6.3394832,4.5581627 6.2956118,4.449081 6.236666,4.301877 6.3967464,4.2123675 6.9163015,4.1018806 c 0.3850253,-0.081878 0.8555736,-0.1214428 1.045637,-0.087918 0.4110901,0.072493 0.4720619,0.4426787 0.073855,0.4483802 -0.1540237,0.00228 -0.2758702,0.096364 -0.2742173,0.2118587 0.00165,0.1143341 -0.059308,0.2088026 -0.1356027,0.2098784 -0.07621,0.00114 -0.1399209,-0.091573 -0.1415585,-0.2059104 -0.00165,-0.1143269 -0.065347,-0.2069999 -0.141588,-0.2059147 -0.07621,0.00114 -0.1371722,0.09973 -0.1354655,0.2192114 0.00217,0.1541527 -0.077635,0.1928492 -0.2753417,0.1332268 -0.1597728,-0.048198 -0.2775523,-0.02096 -0.2763361,0.063923 0.00114,0.081351 -0.060267,0.1488239 -0.1364978,0.1499103 -0.07621,0.00114 -0.1398763,-0.086462 -0.141425,-0.1945788 z M 10.387155,4.0980222 c -0.002,-0.1342512 -0.08079,-0.1839986 -0.209829,-0.1323328 -0.161039,0.064429 -0.2083989,-0.031636 -0.2141649,-0.4341182 -0.0063,-0.4437318 0.0223,-0.4928797 0.2029939,-0.3473158 0.249925,0.2014501 0.263112,0.054981 0.04808,-0.5344798 C 10.075713,2.2700602 9.9922101,2.2162088 9.5496264,2.2212128 9.2712243,2.2243078 8.7933681,2.1883161 8.4877311,2.1410649 7.9824546,2.062967 7.9633252,2.0457723 8.2770846,1.9515032 9.1865244,1.6782158 10.480394,1.9163982 10.391765,2.3405909 c -0.02036,0.097418 0.03391,0.2601729 0.12079,0.3617497 0.225441,0.2638837 0.26438,1.4687307 0.05013,1.5474874 -0.09484,0.034806 -0.173754,-0.033464 -0.175451,-0.1517625 z M 5.2790823,3.8433524 C 5.2091298,3.7109235 5.1868999,3.2901847 5.2296975,2.9083628 5.3011885,2.2708681 5.3217252,2.2386823 5.4815723,2.5144295 5.687586,2.8697516 5.7327108,4.079441 5.540002,4.0822011 5.4664356,4.0832139 5.349033,3.975775 5.2790576,3.8433534 Z M 7.8440898,3.8203481 C 7.7913079,3.7690012 7.7472817,3.5346698 7.7462905,3.2996064 7.7446385,2.8852352 7.751764,2.8805612 7.967955,3.1462601 8.1235729,3.3372136 8.2103306,3.3672359 8.2540162,3.2453294 8.3451659,2.9909676 8.5718009,3.1749641 8.5765578,3.5071845 8.5791353,3.6913946 8.5131518,3.7662351 8.3885627,3.7204506 8.2829296,3.6816286 8.1388293,3.7091444 8.0682913,3.7818434 7.9977807,3.854408 7.8968212,3.8717749 7.8440186,3.8204285 Z M 5.8048596,3.2103222 C 5.8011425,2.6462013 5.8090928,2.6359976 5.9905753,2.953088 6.1268119,3.1908305 6.1987655,3.2286078 6.2474969,3.0880315 6.3333605,2.840964 6.5875666,3.0564534 6.6579571,3.4358587 6.6978946,3.6518495 6.6179783,3.7150546 6.2581978,3.7518017 5.8145785,3.7971393 5.8082854,3.7896226 5.8048327,3.2103365 Z M 8.8128537,3.6685658 C 8.6780902,3.5375992 8.6865154,2.8971339 8.8260697,2.6698735 c 0.081227,-0.1323378 0.145807,-0.040523 0.2162918,0.3076636 0.055292,0.2729683 0.1030858,0.5420097 0.1062933,0.5978674 0.00856,0.1427003 -0.2196385,0.2059147 -0.3356737,0.093174 z M 6.4001877,2.1164408 C 6.2891443,1.94238 6.9049594,1.805438 7.0714084,1.9671882 c 0.084996,0.08259 0.1265579,0.1557654 0.092317,0.1626299 -0.3876592,0.07755 -0.709151,0.071903 -0.7635613,-0.013381 z M 4.9440926,1.5262517 c -0.00165,-0.1143306 0.059307,-0.2088079 0.1356585,-0.2098681 0.07623,-0.00112 0.1399206,0.091579 0.1415572,0.2059098 0.00165,0.1143307 -0.059307,0.2088032 -0.1356028,0.2098785 C 5.0094745,1.7332919 4.945755,1.6406239 4.9441174,1.526255 Z m 4.2983173,0.022549 C 8.8526371,1.4464201 8.6688002,0.98776853 9.0154866,0.98280443 c 0.1198965,-0.00176 0.2201282,0.074786 0.222635,0.17009987 0.00358,0.1340791 0.028124,0.1349176 0.1089644,0.00359 0.1561141,-0.25350747 0.719768,-0.06422 0.724165,0.2431811 0.0038,0.2740397 -0.2083176,0.3122165 -0.828863,0.1490939 z M 8.3623917,1.4542319 C 8.1911466,1.2878555 8.260328,0.99362323 8.4712595,0.99059973 8.5867634,0.98893773 8.6809145,1.1108253 8.6831159,1.2648082 8.6869374,1.5409177 8.5405554,1.6274215 8.3623668,1.45422 Z M 5.9788696,1.2947471 C 6.2056916,1.2235441 6.7500466,1.1194902 7.1884941,1.0635107 7.8698593,0.97652373 7.986154,0.99453873 7.988915,1.1875223 7.991495,1.3798893 7.812593,1.4141188 6.7792915,1.4187594 5.8384543,1.4231294 5.6589328,1.3951614 5.9788696,1.2947286 Z"
   id="path31"
   inkscape:connector-curvature="0" /></svg>